# xmcd CD database file
#
# Track frame offsets:
#	150
#	24032
#	49107
#	68922
#	88702
#	110277
#	129950
#	145677
#	157795
#	178920
#	196757
#
# Disc length: 2990 seconds
#
# Revision: 1
# Processed by: cddbd v1.5.1PL0 Copyright (c) Steve Scherf et al.
# Submitted via: CDex 1.51
#
DISCID=820bac0b
DTITLE=Tokyo No.1 Soul Set - Triple Barrel
DYEAR=1995
DGENRE=Soul
TTITLE0=黄昏'95〜太陽の季節
TTITLE1=Jive My Revolver
TTITLE2=ダンシング　マッシュルーム
TTITLE3=O'Tay
TTITLE4=もう少しだけましな理由
TTITLE5=MORE BIG PARTY
TTITLE6=ELEPHANT BUMP
TTITLE7=オクラホマ・スタンピート
TTITLE8=ロマンティック伝説
TTITLE9=(Play)
TTITLE10=27.8
EXTD=YEAR: 1995
EXTT0=
EXTT1=
EXTT2=
EXTT3=
EXTT4=
EXTT5=
EXTT6=
EXTT7=
EXTT8=
EXTT9=
EXTT10=
PLAYORDER=
